# xmcd CD database file
#
# Track frame offsets:
#	150
#	13509
#	30313
#	44528
#	58677
#	79077
#	92515
#	109676
#	124914
#	140798
#	160235
#	174860
#	192280
#	209070
#	223460
#	241289
#	259503
#	275516
#	292442
#	307924
#	332885
#
# Disc length: 4667 seconds
#
# Revision: 0
# Processed by: cddbd v1.4PL0 Copyright (c) Steve Scherf et al.
# Submitted via: Feurio! 1.63 - http://www.feurio.com
#
DISCID=3e123915
DTITLE=Various Artist - Line Dance Hits From The Jukebox Vol.2
DYEAR=1900
DGENRE=Country
TTITLE0=Lee Kernaghan - Bare Essentials
TTITLE1=Jodie Jenkins - Country Dance Fllor
TTITLE2=Sammy Kershaw&Lorrie Morgan - He Drinks Tequila
TTITLE3=The Fables - Dance, Damce, Dance
TTITLE4=Lonestar - You Walked In
TTITLE5=Shaza Leigh - Darlin'
TTITLE6=The Borderers - Fate
TTITLE7=Glenn Rogers - Dream Weaver
TTITLE8=Andy Griggs - You Won't Ever Be Lonely
TTITLE9=Paul Overstreet - Forever&Ever Amen
TTITLE10=Dave Sheriff - Where There's A Will
TTITLE11=Bob McKinlay - Restless
TTITLE12=Mervyn J. Futter - You Are No Angel
TTITLE13=Don Williams - Tulsa Time
TTITLE14=Redfern and Crooks - Under The Moon
TTITLE15=Chris Raddings - Cheater Senorita
TTITLE16=Blue Dream - Downtown
TTITLE17=Johnny Earle - See You Later Alligator
TTITLE18=Olsen Brothers - Look Up, Look Down
TTITLE19=Johnny Rye - The Blue Danube
TTITLE20=n.n. - DATA
EXTD=
EXTT0=
EXTT1=
EXTT2=
EXTT3=
EXTT4=
EXTT5=
EXTT6=
EXTT7=
EXTT8=
EXTT9=
EXTT10=
EXTT11=
EXTT12=
EXTT13=
EXTT14=
EXTT15=
EXTT16=
EXTT17=
EXTT18=
EXTT19=
EXTT20=
PLAYORDER=
